<svg xmlns="http://www.w3.org/2000/svg" viewBox="0 0 96 96">
  <circle cx="48" cy="48" r="48" fill="#f3e9d0" />
  <rect x="26.5" y="19" width="43" height="47" rx="18" fill="#4a3426" />
  <rect x="43.5" y="47" width="9" height="11" rx="2" fill="#e3b189" />
  <path d="M48 56 C60 56 68 62 71 70 L71 96 L25 96 L25 70 C28 62 36 56 48 56 Z" fill="#a17f36" />
  <circle cx="48" cy="35" r="15" fill="#e3b189" />
  <path d="M33 35 A15 15 0 0 1 63 35 Q63 27 56 28 Q53 25 48 26 Q43 25 40 28 Q33 28 33 35 Z" fill="#4a3426" />
  <path d="M41 67 Q48 74 55 67" stroke="#c8a24b" stroke-width="2.5" stroke-linecap="round" fill="none" />
</svg>
